<?xml version="1.0" encoding="UTF-8" standalone="no"?>
<!DOCTYPE svg PUBLIC "-//W3C//DTD SVG 1.1//EN" "http://www.w3.org/Graphics/SVG/1.1/DTD/svg11.dtd">
<svg width="100%" height="100%" viewBox="0 0 299 74" version="1.1" xmlns="http://www.w3.org/2000/svg" xmlns:xlink="http://www.w3.org/1999/xlink" xml:space="preserve" xmlns:serif="http://www.serif.com/" style="fill-rule:evenodd;clip-rule:evenodd;stroke-linejoin:round;stroke-miterlimit:2;">
    <g transform="matrix(1,0,0,1,-96.05,-138.81543)">
        <g transform="matrix(2.50357,0,0,2.50357,-144.417892,-208.718706)">
            <path d="M105.6,140.215C105.6,139.865 105.9,139.615 106.35,139.615L111.75,139.615C113.1,139.615 114.25,140.315 114.6,141.315L121.6,160.665C123.3,164.865 125.1,166.115 126.4,166.515C126.9,166.665 127.15,166.915 127.15,167.215C127.15,167.565 126.9,167.815 126.4,167.815L113.5,167.815C113.1,167.815 112.75,167.565 112.75,167.215C112.75,166.915 113,166.715 113.5,166.465C114.5,165.915 115.4,164.365 114.7,161.715L113.9,159.615L103.65,159.565L103.1,161.315C102.3,163.615 104.7,165.715 106.1,166.415C106.6,166.665 106.85,166.915 106.85,167.215C106.85,167.565 106.5,167.815 106.1,167.815L96.8,167.815C96.35,167.815 96.05,167.565 96.05,167.215C96.05,166.915 96.3,166.615 96.8,166.415C98.4,165.765 100.8,163.565 101.55,161.315L107.75,142.515C107.4,141.815 107,141.215 106.35,140.915C105.85,140.715 105.6,140.515 105.6,140.215ZM108.55,144.565L104.05,158.365L113.5,158.415L108.55,144.565ZM128.8,141.765C128.8,141.415 129,141.165 129.35,141.115C132.1,141.015 134.85,139.915 136.1,139.065C136.3,138.915 136.6,138.815 136.8,138.815C137.1,138.815 137.25,138.965 137.25,139.215L137.25,148.965C138,148.165 139.1,147.615 140.4,147.615C147.8,147.615 151.2,152.415 151.2,157.365C151.2,162.615 147.4,168.015 140.4,168.015C138.6,168.015 137.45,167.215 136.7,166.115C136.1,167.165 134.95,167.765 133.55,167.815L128.2,167.815C127.7,167.815 127.4,167.565 127.4,167.215C127.4,166.915 127.65,166.715 128.15,166.465C129.2,165.965 130.2,164.365 130.2,160.665L130.2,145.015C130.2,144.115 130.15,142.865 129.35,142.515C128.95,142.315 128.8,142.065 128.8,141.765ZM140.4,166.715C144.9,166.715 145.7,149.015 140.45,149.015C138.05,149.015 137.3,151.265 137.25,152.915L137.25,161.315C137.3,163.515 137.75,166.715 140.4,166.715ZM164.1,168.015C156.8,168.015 153.1,162.915 153.1,157.815C153.1,152.715 156.8,147.615 164.15,147.615C171.45,147.615 175.15,152.715 175.15,157.815C175.15,162.915 171.45,168.015 164.1,168.015ZM164.15,166.865C169.2,166.865 169.25,148.865 164.15,148.865C159.05,148.865 159.05,166.865 164.15,166.865ZM190.8,166.165L190.8,164.865C189.75,166.665 187.75,168.015 185.3,168.015C181.15,168.015 178.2,165.515 178.2,161.615L178.2,153.615C178.2,152.715 178.2,151.165 177.35,150.715C176.95,150.515 176.75,150.315 176.75,150.015L176.75,149.965C176.75,149.615 177,149.415 177.35,149.365C180.05,149.215 182.8,148.115 184.1,147.315C184.3,147.115 184.55,147.065 184.8,147.065C185.05,147.065 185.2,147.215 185.2,147.465L185.2,162.015C185.2,164.765 186.15,165.765 187.3,165.765C188.85,165.765 190.75,163.815 190.8,161.965L190.8,153.265C190.8,152.365 190.75,151.165 189.95,150.715C189.55,150.515 189.35,150.315 189.35,150.015C189.35,149.665 189.6,149.415 189.95,149.415C192.65,149.265 195.4,148.165 196.7,147.315C196.9,147.165 197.15,147.065 197.4,147.065C197.65,147.065 197.8,147.215 197.8,147.465L197.8,162.865C197.8,163.765 197.95,165.365 199.8,165.015C200.65,164.915 200.85,166.065 200.25,166.165L193.1,167.915C191.75,168.065 190.8,167.215 190.8,166.165ZM201,147.815L201.85,147.815C203.15,147.815 207.2,146.565 209.25,142.915L210.05,142.915L210.05,144.315C210.05,145.515 210,147.715 211.25,147.815L213.85,147.815C214.1,147.815 214.25,147.965 214.25,148.215L214.25,148.715C214.25,148.965 214.1,149.115 213.85,149.115L210.05,149.115L210.05,162.865C210.05,164.565 210.6,165.115 211.35,165.115C212.4,165.115 213.8,163.915 214.4,163.115C214.55,162.915 214.75,162.865 214.9,163.065C215.1,163.265 215.15,163.565 215.05,163.765C213.5,166.765 210.55,168.215 208,168.215C205.3,168.215 203,166.665 203.05,163.715L203.05,151.165C203,150.165 202.8,149.115 201.85,149.115L201,149.115C200.75,149.115 200.6,148.965 200.6,148.715L200.6,148.215C200.6,147.965 200.75,147.815 201,147.815Z" style="fill:rgb(217,209,191);"/>
        </g>
    </g>
</svg>
