<?xml version="1.0" encoding="UTF-8" standalone="no"?>
<!DOCTYPE svg PUBLIC "-//W3C//DTD SVG 1.1//EN" "http://www.w3.org/Graphics/SVG/1.1/DTD/svg11.dtd">
<svg width="100%" height="100%" viewBox="0 0 949 179" version="1.1" xmlns="http://www.w3.org/2000/svg" xmlns:xlink="http://www.w3.org/1999/xlink" xml:space="preserve" xmlns:serif="http://www.serif.com/" style="fill-rule:evenodd;clip-rule:evenodd;stroke-linejoin:round;stroke-miterlimit:2;">
    <g transform="matrix(1,0,0,1,-100,-150)">
        <g transform="matrix(1,0,0,1,0,70)">
            <g transform="matrix(1,0,0,1,0,-70)">
                <path d="M100,157.314C100,158.686 101.143,159.6 103.429,160.743C107.771,163.029 112.343,169.657 112.8,184.971L112.8,249.886C112.8,266.8 108.229,274.114 103.429,276.4C101.143,277.543 100,278.457 100,279.829C100,281.429 101.371,282.571 103.657,282.571L155.086,282.571C157.143,282.571 158.743,281.429 158.743,279.829C158.743,278.457 157.6,277.543 155.314,276.4C150.743,274.343 146.171,267.486 145.943,252.4L145.943,233.429C177.257,225.886 210.4,204.857 210.4,184.743C210.4,169.886 202.857,154.571 156.914,154.571L103.657,154.571C101.371,154.571 100,155.714 100,157.314ZM150.057,160.971C166.286,160.971 174.971,173.086 174.971,187.714C174.971,203.029 162.629,219.029 145.943,226.343L145.943,160.971L150.057,160.971ZM294.514,255.829C294.057,255.6 293.371,256.057 293.143,256.514C291.314,261.771 283.086,267.257 273.257,267.257C256.114,267.257 248.114,252.4 246.286,236.171L289.257,233.886C294.971,233.657 298.629,230.457 298.629,226.343L298.629,226.114C298.629,211.486 286.286,189.086 263.2,189.086C198.057,189.086 194.171,283.257 258.857,283.257C277.371,283.257 292.686,273.657 295.657,257.2C295.657,256.514 295.2,256.057 294.743,255.829L294.514,255.829ZM245.829,229.086C245.829,211.486 252.914,194.343 263.2,194.343C275.771,194.343 281.029,225.886 266.171,227.943L245.829,229.086ZM309.6,317.543C309.6,319.143 310.743,320.286 313.029,320.286L360.343,320.286C362.4,320.286 363.771,319.143 363.771,317.543C363.771,316.171 362.857,315.029 360.571,314.114C356.229,312.057 354.629,305.657 354.4,291.257L354.4,278C357.6,281.2 362.4,283.486 368.8,283.486C400.8,283.486 418.171,258.8 418.171,234.8C418.171,212.4 402.629,190.229 368.8,190.229C361.943,190.229 356.457,194.343 352.8,199.6L351.2,189.543C350.971,188.4 350.514,187.714 349.371,187.714C348.229,187.714 347.086,188.171 346.171,188.857C340.229,192.743 330.857,197.771 318.514,198.457C316.914,198.457 315.771,199.6 315.771,201.2C315.771,202.571 316.686,203.486 318.514,204.4C321.486,206.229 322.171,210.8 322.4,214.457L322.4,287.6C322.4,304.743 317.6,311.829 312.8,314.114C310.514,315.029 309.6,316.171 309.6,317.543ZM369.029,196.629C393.029,196.629 389.371,277.771 368.8,277.771C357.6,277.771 354.857,265.429 354.4,255.6L354.4,212.629C355.086,205.314 358.743,196.629 369.029,196.629ZM488.343,163.486C488.343,164.857 489.029,166 490.857,166.914C494.057,168.514 494.514,172.857 494.743,176.743L494.743,249.886C494.743,266.8 490.171,274.114 485.371,276.4C483.086,277.543 481.943,278.457 481.943,279.829C481.943,281.429 483.314,282.571 485.6,282.571L535.886,282.571C538.171,282.571 539.543,281.429 539.543,279.829C539.543,278.457 538.4,277.543 536.114,276.4C531.543,274.343 527.2,267.486 526.743,252.4L526.743,151.829C526.743,150.686 526.057,150 524.914,150C524,150 522.629,150.457 521.714,151.143C516,155.029 503.429,160.057 490.857,160.743C489.257,160.743 488.343,161.886 488.343,163.486ZM650.857,277.543C652.229,276.4 652.686,273.886 652.229,272.057C651.543,270.229 650.857,270.229 648.8,271.371C647.429,272.057 645.829,272.514 644.686,272.514C640.571,272.514 640.571,268.4 639.886,262.229L635.543,225.429C632.571,200.286 614.286,190.229 587.314,190.229C569.714,190.229 556.914,203.714 556.914,216.743C556.914,226.114 563.086,230 569.486,230C576.114,230 583.2,225.429 583.2,218.114C583.2,208.743 570.171,196.171 585.257,196.171C598.971,196.171 602.171,211.029 602.857,216.743C605.143,238 549.6,230.914 549.6,262C549.6,277.543 562.629,285.314 576.571,285.314C588.914,285.314 602.4,279.143 608.114,266.571L608.343,268.171C608.8,272.971 611.086,283.943 631.886,283.943C641.486,283.943 647.657,280.286 650.857,277.543ZM583.657,262C583.657,244.629 598.057,242.343 604.229,229.086L606.971,255.371C604.914,264.743 597.371,269.771 591.429,269.771C587.086,269.771 583.657,267.257 583.657,262ZM717.371,279.829C717.371,281.429 718.743,282.571 720.8,282.571L771.314,282.571C773.371,282.571 774.971,281.429 774.971,279.829C774.971,278.457 773.829,277.543 771.543,276.4C766.743,274.114 765.143,266.571 762.171,249.886L757.6,223.6C757.371,223.371 757.371,222.914 757.371,222.686C757.6,211.257 764.914,202.571 772.229,202.571C781.829,202.571 784.343,215.143 786.629,231.371L789.829,254.686C791.657,268.171 784.8,274.343 780.457,276.4C777.943,277.543 777.029,278.457 777.029,279.829C777.029,281.429 778.4,282.571 780.686,282.571L830.971,282.571C833.257,282.571 834.629,281.429 834.629,279.829C834.629,278.457 833.714,277.543 831.2,276.4C826.4,274.114 824.8,266.571 821.829,249.886L817.257,223.6C812.914,199.143 805.829,190 784.343,190C769.714,190 757.829,201.2 755.086,212.4C750.286,196.171 742.286,190 724.457,190C713.486,190 706.4,195.486 702.743,202.571L702.743,189.543C702.743,188.4 702.057,187.714 700.686,187.714C699.771,187.714 698.4,187.943 697.486,188.857C691.771,192.514 679.2,197.771 666.629,198.229C665.257,198.457 664.114,199.6 664.114,200.971L664.114,201.2C664.114,202.571 664.8,203.486 666.629,204.4C670.286,206.229 670.514,211.943 670.514,216.057L670.514,249.886C670.514,266.8 665.943,274.114 661.143,276.4C658.857,277.543 657.714,278.457 657.714,279.829C657.714,281.429 659.086,282.571 661.371,282.571L712.114,282.571C713.943,282.571 715.543,281.429 715.543,279.829C715.543,278.457 714.4,277.543 712.114,276.4C707.314,274.114 702.743,266.8 702.743,249.886L702.743,214.229C703.657,206.686 706.629,202.571 712.343,202.571C722.171,202.571 724.914,215.143 726.743,231.371L729.943,254.686C731.771,268.171 724.914,274.343 720.8,276.4C718.514,277.543 717.371,278.457 717.371,279.829ZM840.8,317.543C840.8,319.143 841.943,320.286 844.229,320.286L891.543,320.286C893.6,320.286 894.971,319.143 894.971,317.543C894.971,316.171 894.057,315.029 891.771,314.114C887.429,312.057 885.829,305.657 885.6,291.257L885.6,278C888.8,281.2 893.6,283.486 900,283.486C932,283.486 949.371,258.8 949.371,234.8C949.371,212.4 933.829,190.229 900,190.229C893.143,190.229 887.657,194.343 884,199.6L882.4,189.543C882.171,188.4 881.714,187.714 880.571,187.714C879.429,187.714 878.286,188.171 877.371,188.857C871.429,192.743 862.057,197.771 849.714,198.457C848.114,198.457 846.971,199.6 846.971,201.2C846.971,202.571 847.886,203.486 849.714,204.4C852.686,206.229 853.371,210.8 853.6,214.457L853.6,287.6C853.6,304.743 848.8,311.829 844,314.114C841.714,315.029 840.8,316.171 840.8,317.543ZM900.229,196.629C924.229,196.629 920.571,277.771 900,277.771C888.8,277.771 886.057,265.429 885.6,255.6L885.6,212.629C886.286,205.314 889.943,196.629 900.229,196.629ZM1044.229,255.829C1043.771,255.6 1043.086,256.057 1042.857,256.514C1041.029,261.771 1032.8,267.257 1022.971,267.257C1005.829,267.257 997.829,252.4 996,236.171L1038.971,233.886C1044.686,233.657 1048.343,230.457 1048.343,226.343L1048.343,226.114C1048.343,211.486 1036,189.086 1012.914,189.086C947.771,189.086 943.886,283.257 1008.571,283.257C1027.086,283.257 1042.4,273.657 1045.371,257.2C1045.371,256.514 1044.914,256.057 1044.457,255.829L1044.229,255.829ZM995.543,229.086C995.543,211.486 1002.629,194.343 1012.914,194.343C1025.486,194.343 1030.743,225.886 1015.886,227.943L995.543,229.086ZM389.63,300.869L389.63,302.051C390.609,300.883 391.533,300.074 392.402,299.626C393.272,299.178 394.359,298.954 395.663,298.954C398.326,298.954 400.282,299.986 401.532,302.051C402.456,300.91 403.394,300.108 404.345,299.647C405.296,299.185 406.518,298.954 408.013,298.954C409.562,298.954 410.948,299.28 412.17,299.932C413.529,300.666 414.466,301.698 414.983,303.03C415.336,303.926 415.513,305.339 415.513,307.269L415.513,311.222L415.472,314.279C415.472,315.393 415.485,316.073 415.513,316.317C415.649,317.295 416.002,317.784 416.572,317.784C416.763,317.784 417.048,317.744 417.428,317.662C417.809,317.581 418.094,317.54 418.284,317.54C419.235,317.54 419.711,317.948 419.711,318.763C419.711,319.714 419.167,320.189 418.081,320.189C417.673,320.189 417.055,320.142 416.226,320.047C415.397,319.952 414.765,319.904 414.331,319.904C413.869,319.904 413.196,319.952 412.313,320.047C411.43,320.142 410.757,320.189 410.295,320.189C409.154,320.189 408.584,319.714 408.584,318.763C408.584,317.948 409.018,317.54 409.888,317.54C409.997,317.54 410.268,317.567 410.703,317.621C410.866,317.676 411.083,317.703 411.355,317.703C411.817,317.703 412.109,317.472 412.232,317.01C412.354,316.548 412.429,315.393 412.456,313.545L412.496,311.059L412.496,308.369C412.496,306.494 412.354,305.129 412.068,304.273C411.783,303.417 411.247,302.744 410.458,302.255C409.67,301.766 408.774,301.521 407.768,301.521C405.839,301.521 404.494,302.187 403.733,303.519C403.135,304.578 402.836,306.426 402.836,309.062L402.836,311.956C402.836,314.51 402.898,316.107 403.02,316.745C403.142,317.384 403.461,317.703 403.978,317.703C404.141,317.703 404.379,317.669 404.691,317.601C405.004,317.533 405.241,317.499 405.404,317.499C405.785,317.499 406.104,317.628 406.362,317.886C406.62,318.145 406.749,318.464 406.749,318.844C406.749,319.741 406.111,320.189 404.834,320.189C404.426,320.189 403.821,320.135 403.02,320.026C402.218,319.918 401.614,319.863 401.206,319.863C400.635,319.863 400.01,319.918 399.331,320.026C398.652,320.135 398.054,320.189 397.538,320.189C396.424,320.189 395.867,319.727 395.867,318.803C395.867,317.961 396.274,317.54 397.089,317.54C397.388,317.54 397.619,317.567 397.782,317.621C398.163,317.703 398.448,317.744 398.638,317.744C399.29,317.744 399.63,317.051 399.657,315.665L399.698,313.749C399.725,313.151 399.739,312.567 399.739,311.997C399.766,311.508 399.78,311.249 399.78,311.222L399.78,307.839C399.78,305.475 399.46,303.831 398.822,302.907C398.183,301.983 397.049,301.521 395.418,301.521C393.625,301.521 392.253,302.174 391.302,303.478C390.514,304.538 390.12,306.385 390.12,309.021L390.12,314.442C390.12,315.529 390.133,316.168 390.16,316.358C390.269,317.282 390.568,317.744 391.057,317.744C391.193,317.744 391.478,317.689 391.913,317.581C391.967,317.581 392.049,317.567 392.157,317.54L392.443,317.54C393.503,317.54 394.032,317.988 394.032,318.885C394.032,319.755 393.421,320.189 392.198,320.189C391.736,320.189 391.166,320.149 390.486,320.067C389.562,319.958 388.774,319.904 388.122,319.904C387.796,319.904 387.198,319.945 386.329,320.026C385.16,320.135 384.454,320.189 384.209,320.189C383.122,320.189 382.579,319.727 382.579,318.803C382.579,317.961 383.095,317.54 384.128,317.54L384.372,317.54C384.481,317.567 384.563,317.581 384.617,317.581L385.636,317.784C385.663,317.812 385.718,317.825 385.799,317.825C386.533,317.825 386.927,317.159 386.981,315.828L387.063,313.505L387.063,307.269C387.063,304.959 387.001,303.519 386.879,302.948C386.757,302.377 386.424,302.092 385.881,302.092C385.772,302.092 385.391,302.16 384.739,302.296C384.468,302.35 384.25,302.377 384.087,302.377C383.082,302.377 382.579,301.943 382.579,301.073C382.579,300.149 383.136,299.687 384.25,299.687C384.549,299.687 384.957,299.714 385.473,299.769C385.989,299.823 386.438,299.85 386.818,299.85C386.954,299.85 387.103,299.837 387.266,299.81L387.552,299.81L388.53,299.687L388.652,299.687C389.304,299.687 389.63,300.081 389.63,300.869ZM439.846,308.043C439.846,309.076 439.778,309.707 439.642,309.938C439.506,310.169 439.112,310.285 438.46,310.285L425.499,310.285C425.145,310.285 424.915,310.332 424.806,310.427C424.697,310.522 424.643,310.679 424.643,310.896C424.643,312.934 425.254,314.632 426.477,315.991C427.7,317.35 429.221,318.029 431.042,318.029C432.238,318.029 433.331,317.703 434.323,317.051C435.315,316.399 435.96,315.57 436.259,314.564L436.626,313.382C436.816,312.73 437.265,312.404 437.971,312.404C438.977,312.404 439.479,312.921 439.479,313.953C439.479,315.719 438.583,317.289 436.789,318.661C434.996,320.033 432.958,320.719 430.675,320.719C427.822,320.719 425.553,319.761 423.868,317.846C422.184,315.93 421.341,313.355 421.341,310.122C421.341,306.807 422.238,304.116 424.031,302.051C425.825,299.986 428.162,298.954 431.042,298.954C433.596,298.954 435.702,299.81 437.36,301.521C439.017,303.233 439.846,305.407 439.846,308.043ZM425.05,306.983C425.05,307.364 425.349,307.554 425.947,307.554L435.689,307.554C436.259,307.554 436.545,307.364 436.545,306.983C436.545,305.543 436.001,304.293 434.914,303.233C433.827,302.174 432.55,301.644 431.083,301.644C429.561,301.644 428.175,302.194 426.925,303.294C425.675,304.395 425.05,305.625 425.05,306.983ZM454.723,306.576C454.723,305.489 455.403,304.864 456.761,304.701C456.625,303.75 456.17,303.002 455.396,302.459C454.621,301.915 453.623,301.644 452.4,301.644C450.525,301.644 449.017,302.391 447.876,303.885C446.734,305.38 446.164,307.364 446.164,309.836C446.164,312.391 446.7,314.395 447.774,315.848C448.847,317.302 450.335,318.029 452.237,318.029C453.433,318.029 454.472,317.689 455.355,317.01C456.238,316.331 456.843,315.393 457.169,314.198C457.441,313.247 457.604,312.703 457.658,312.567C457.957,312.024 458.392,311.752 458.962,311.752C459.424,311.752 459.805,311.902 460.103,312.2C460.402,312.499 460.552,312.88 460.552,313.342C460.552,314.021 460.334,314.836 459.9,315.787C459.465,316.738 458.949,317.526 458.351,318.151C456.748,319.863 454.669,320.719 452.115,320.719C449.343,320.719 447.108,319.741 445.41,317.784C443.711,315.828 442.862,313.26 442.862,310.081C442.862,306.711 443.739,304.015 445.491,301.99C447.244,299.966 449.574,298.954 452.481,298.954C454.655,298.954 456.462,299.545 457.902,300.727C459.343,301.909 460.063,303.41 460.063,305.231C460.063,306.236 459.784,307.065 459.227,307.717C458.67,308.369 457.957,308.695 457.087,308.695C456.408,308.695 455.844,308.491 455.396,308.084C454.947,307.676 454.723,307.173 454.723,306.576ZM469.519,293.777L469.356,301.684C470.443,300.652 471.435,299.939 472.331,299.545C473.228,299.151 474.288,298.954 475.511,298.954C477.847,298.954 479.722,299.619 481.135,300.951C482.548,302.282 483.255,304.035 483.255,306.209L483.255,313.016C483.255,314.619 483.268,315.502 483.296,315.665C483.404,317.024 483.758,317.703 484.355,317.703C484.573,317.703 484.885,317.649 485.293,317.54C485.456,317.513 485.673,317.499 485.945,317.499C486.95,317.499 487.453,317.948 487.453,318.844C487.453,319.741 486.801,320.189 485.497,320.189C485.143,320.189 484.627,320.149 483.948,320.067C482.807,319.931 481.883,319.863 481.176,319.863C480.47,319.863 479.926,319.89 479.546,319.945C478.404,320.108 477.698,320.189 477.426,320.189C476.937,320.189 476.53,320.047 476.203,319.761C475.877,319.476 475.714,319.116 475.714,318.681C475.714,318.328 475.857,318.029 476.142,317.784C476.428,317.54 476.761,317.418 477.141,317.418C477.44,317.418 477.793,317.486 478.201,317.621C478.445,317.703 478.676,317.744 478.894,317.744C479.709,317.744 480.13,316.861 480.157,315.094C480.157,314.768 480.171,314.13 480.198,313.179L480.239,311.426L480.239,309.225C480.239,306.453 479.967,304.592 479.423,303.641C478.635,302.228 477.25,301.521 475.266,301.521C473.119,301.521 471.557,302.255 470.579,303.722C469.899,304.728 469.546,306.345 469.519,308.573L469.478,311.508C469.478,311.671 469.465,311.942 469.437,312.323L469.437,313.097C469.437,314.646 469.451,315.543 469.478,315.787C469.614,317.119 470.008,317.784 470.66,317.784C470.878,317.784 471.183,317.737 471.577,317.642C471.971,317.547 472.263,317.499 472.454,317.499C473.323,317.499 473.758,317.92 473.758,318.763C473.758,319.714 473.16,320.189 471.964,320.189C471.584,320.189 471.013,320.149 470.253,320.067C469.22,319.958 468.337,319.904 467.603,319.904C467.141,319.904 466.503,319.945 465.688,320.026C464.601,320.135 463.908,320.189 463.609,320.189C462.495,320.189 461.938,319.7 461.938,318.722C461.938,317.907 462.454,317.499 463.487,317.499C463.84,317.499 464.098,317.526 464.261,317.581C464.723,317.662 465.049,317.703 465.239,317.703C465.674,317.703 465.966,317.289 466.116,316.46C466.265,315.631 466.353,313.939 466.38,311.385L466.421,304.089C466.421,300.013 466.34,297.439 466.177,296.365C466.014,295.292 465.633,294.755 465.035,294.755C464.845,294.755 464.56,294.796 464.179,294.878C463.799,294.959 463.5,295 463.283,295C462.359,295 461.897,294.565 461.897,293.696C461.897,293.315 462.06,292.989 462.386,292.717C462.712,292.446 463.106,292.31 463.568,292.31C463.704,292.31 464.166,292.351 464.954,292.432C465.47,292.486 466.027,292.514 466.625,292.514C466.87,292.514 467.209,292.486 467.644,292.432C468.079,292.378 468.391,292.351 468.581,292.351C469.206,292.351 469.519,292.799 469.519,293.696L469.519,293.777ZM506.61,320.556C504.382,320.556 503.01,319.591 502.493,317.662C501.107,319.7 498.934,320.719 495.972,320.719C493.771,320.719 492.011,320.176 490.693,319.089C489.376,318.002 488.717,316.548 488.717,314.728C488.717,312.472 489.681,310.815 491.611,309.755C492.344,309.347 492.976,309.082 493.506,308.96C494.036,308.838 495.102,308.682 496.705,308.491C498.988,308.247 500.476,307.907 501.169,307.472C501.862,307.038 502.208,306.236 502.208,305.068C502.208,303.953 501.821,303.077 501.046,302.439C500.272,301.8 499.192,301.481 497.806,301.481C496.583,301.481 495.442,301.82 494.382,302.5C493.975,302.771 493.771,303.057 493.771,303.356C493.771,303.464 493.893,303.6 494.138,303.763C494.518,304.035 494.708,304.497 494.708,305.149C494.708,305.693 494.511,306.141 494.117,306.494C493.723,306.847 493.227,307.024 492.63,307.024C491.923,307.024 491.332,306.779 490.856,306.29C490.381,305.801 490.143,305.203 490.143,304.497C490.143,302.975 490.897,301.671 492.405,300.584C493.913,299.497 495.741,298.954 497.887,298.954C502.833,298.954 505.306,301.331 505.306,306.087L505.306,314.32C505.306,315.624 505.333,316.399 505.387,316.643C505.55,317.594 506.012,318.07 506.773,318.07C507.724,318.07 508.2,317.2 508.2,315.461L508.2,313.464C508.2,312.594 508.621,312.16 509.463,312.16C510.36,312.16 510.808,312.812 510.808,314.116L510.808,314.32L510.767,316.643C510.713,319.252 509.327,320.556 506.61,320.556ZM502.086,312.445L502.126,309.551C501.529,310.095 500.897,310.475 500.231,310.692C499.565,310.91 498.377,311.1 496.665,311.263C493.567,311.562 492.018,312.703 492.018,314.687C492.018,315.719 492.392,316.535 493.139,317.132C493.886,317.73 494.898,318.029 496.176,318.029C497.996,318.029 499.43,317.533 500.476,316.541C501.522,315.549 502.059,314.184 502.086,312.445ZM518.308,300.91L518.308,302.051C519.938,299.986 522.112,298.954 524.829,298.954C526.297,298.954 527.683,299.327 528.987,300.074C530.291,300.822 531.174,301.752 531.636,302.867C532.017,303.79 532.207,305 532.207,306.494L532.207,314.238C532.207,315.407 532.221,316.1 532.248,316.317C532.384,317.241 532.75,317.703 533.348,317.703C533.593,317.703 533.912,317.669 534.306,317.601C534.7,317.533 534.979,317.499 535.142,317.499C535.495,317.499 535.801,317.621 536.059,317.866C536.317,318.111 536.446,318.409 536.446,318.763C536.446,319.17 536.283,319.51 535.957,319.782C535.631,320.053 535.237,320.189 534.775,320.189C534.394,320.189 533.769,320.135 532.9,320.026C532.03,319.918 531.215,319.863 530.454,319.863C529.748,319.863 529.164,319.89 528.702,319.945C527.343,320.108 526.623,320.189 526.541,320.189C525.454,320.189 524.911,319.714 524.911,318.763C524.911,317.92 525.373,317.499 526.297,317.499C526.514,317.499 526.759,317.526 527.031,317.581C527.547,317.689 527.873,317.744 528.009,317.744C528.661,317.744 529.014,316.996 529.068,315.502L529.15,313.423L529.191,310.937L529.191,307.839C529.191,306.399 529.123,305.407 528.987,304.864C528.742,303.831 528.213,303.03 527.397,302.459C526.501,301.834 525.482,301.521 524.34,301.521C522.167,301.521 520.604,302.296 519.653,303.845C519.001,304.904 518.675,306.711 518.675,309.266L518.675,314.687C518.675,315.882 518.756,316.698 518.919,317.132C519.082,317.567 519.381,317.784 519.816,317.784C520.033,317.784 520.332,317.73 520.713,317.621C521.093,317.513 521.406,317.458 521.65,317.458C522.493,317.458 522.914,317.92 522.914,318.844C522.914,319.741 522.37,320.189 521.283,320.189C521.066,320.189 520.36,320.108 519.164,319.945C518.566,319.863 517.9,319.822 517.167,319.822C516.596,319.822 515.835,319.877 514.884,319.985C513.689,320.121 513.009,320.189 512.846,320.189C511.705,320.189 511.134,319.727 511.134,318.803C511.134,317.934 511.569,317.499 512.439,317.499C512.574,317.499 512.826,317.54 513.193,317.621C513.56,317.703 513.92,317.744 514.273,317.744C515.088,317.744 515.509,316.956 515.536,315.38L515.618,310.855L515.618,305.923L515.536,304.497C515.482,303.573 515.367,302.941 515.19,302.602C515.013,302.262 514.708,302.092 514.273,302.092C514.083,302.092 513.804,302.126 513.437,302.194C513.07,302.262 512.792,302.296 512.602,302.296C511.623,302.296 511.134,301.861 511.134,300.992C511.134,300.095 511.746,299.647 512.968,299.647C513.132,299.647 513.267,299.66 513.376,299.687L514.884,299.85C515.319,299.85 515.699,299.823 516.025,299.769C516.732,299.714 517.099,299.687 517.126,299.687C517.914,299.687 518.308,300.095 518.308,300.91ZM544.639,308.206L544.639,313.505C544.639,314.863 544.652,315.665 544.679,315.91C544.815,317.132 545.182,317.744 545.78,317.744C545.916,317.744 546.255,317.676 546.799,317.54C546.935,317.486 547.138,317.458 547.41,317.458C548.443,317.458 548.959,317.907 548.959,318.803C548.959,319.184 548.789,319.51 548.45,319.782C548.11,320.053 547.682,320.189 547.166,320.189C546.731,320.189 546.072,320.128 545.189,320.006C544.306,319.884 543.647,319.822 543.212,319.822C542.506,319.822 541.717,319.877 540.848,319.985C539.788,320.121 539.082,320.189 538.728,320.189C537.642,320.189 537.098,319.727 537.098,318.803C537.098,317.907 537.56,317.458 538.484,317.458C538.701,317.458 539.021,317.499 539.442,317.581C539.863,317.662 540.182,317.703 540.4,317.703C541.052,317.703 541.446,316.833 541.582,315.094L541.582,304.66C541.446,302.948 541.038,302.092 540.359,302.092C540.141,302.092 539.836,302.14 539.442,302.235C539.048,302.33 538.756,302.377 538.565,302.377C537.587,302.377 537.098,301.943 537.098,301.073C537.098,300.149 537.696,299.687 538.892,299.687C539.408,299.687 539.775,299.701 539.992,299.728C540.862,299.837 541.419,299.891 541.663,299.891C541.881,299.891 542.213,299.857 542.662,299.789C543.11,299.721 543.443,299.687 543.66,299.687C544.448,299.687 544.842,300.217 544.842,301.277C544.842,301.386 544.829,301.549 544.802,301.766C544.774,301.983 544.761,302.146 544.761,302.255C544.734,302.473 544.707,303.315 544.679,304.782C544.652,305.896 544.639,307.038 544.639,308.206ZM542.519,297.527C541.894,297.527 541.357,297.303 540.909,296.854C540.461,296.406 540.237,295.869 540.237,295.244C540.237,294.62 540.461,294.09 540.909,293.655C541.357,293.22 541.894,293.003 542.519,293.003C543.144,293.003 543.681,293.22 544.129,293.655C544.577,294.09 544.802,294.62 544.802,295.244C544.802,295.869 544.577,296.406 544.129,296.854C543.681,297.303 543.144,297.527 542.519,297.527ZM562.532,306.576C562.532,305.489 563.211,304.864 564.57,304.701C564.434,303.75 563.979,303.002 563.205,302.459C562.43,301.915 561.431,301.644 560.209,301.644C558.334,301.644 556.826,302.391 555.684,303.885C554.543,305.38 553.972,307.364 553.972,309.836C553.972,312.391 554.509,314.395 555.582,315.848C556.656,317.302 558.144,318.029 560.046,318.029C561.241,318.029 562.281,317.689 563.164,317.01C564.047,316.331 564.651,315.393 564.978,314.198C565.249,313.247 565.412,312.703 565.467,312.567C565.766,312.024 566.2,311.752 566.771,311.752C567.233,311.752 567.613,311.902 567.912,312.2C568.211,312.499 568.361,312.88 568.361,313.342C568.361,314.021 568.143,314.836 567.708,315.787C567.274,316.738 566.757,317.526 566.16,318.151C564.556,319.863 562.478,320.719 559.923,320.719C557.152,320.719 554.917,319.741 553.218,317.784C551.52,315.828 550.671,313.26 550.671,310.081C550.671,306.711 551.547,304.015 553.3,301.99C555.053,299.966 557.383,298.954 560.29,298.954C562.464,298.954 564.271,299.545 565.711,300.727C567.151,301.909 567.871,303.41 567.871,305.231C567.871,306.236 567.593,307.065 567.036,307.717C566.479,308.369 565.766,308.695 564.896,308.695C564.217,308.695 563.653,308.491 563.205,308.084C562.756,307.676 562.532,307.173 562.532,306.576ZM588.985,320.556C586.757,320.556 585.384,319.591 584.868,317.662C583.482,319.7 581.308,320.719 578.347,320.719C576.146,320.719 574.386,320.176 573.068,319.089C571.75,318.002 571.091,316.548 571.091,314.728C571.091,312.472 572.056,310.815 573.985,309.755C574.719,309.347 575.351,309.082 575.881,308.96C576.411,308.838 577.477,308.682 579.08,308.491C581.363,308.247 582.851,307.907 583.543,307.472C584.236,307.038 584.583,306.236 584.583,305.068C584.583,303.953 584.196,303.077 583.421,302.439C582.647,301.8 581.567,301.481 580.181,301.481C578.958,301.481 577.817,301.82 576.757,302.5C576.349,302.771 576.146,303.057 576.146,303.356C576.146,303.464 576.268,303.6 576.512,303.763C576.893,304.035 577.083,304.497 577.083,305.149C577.083,305.693 576.886,306.141 576.492,306.494C576.098,306.847 575.602,307.024 575.004,307.024C574.298,307.024 573.707,306.779 573.231,306.29C572.756,305.801 572.518,305.203 572.518,304.497C572.518,302.975 573.272,301.671 574.78,300.584C576.288,299.497 578.116,298.954 580.262,298.954C585.208,298.954 587.681,301.331 587.681,306.087L587.681,314.32C587.681,315.624 587.708,316.399 587.762,316.643C587.925,317.594 588.387,318.07 589.148,318.07C590.099,318.07 590.574,317.2 590.574,315.461L590.574,313.464C590.574,312.594 590.996,312.16 591.838,312.16C592.735,312.16 593.183,312.812 593.183,314.116L593.183,314.32L593.142,316.643C593.088,319.252 591.702,320.556 588.985,320.556ZM584.461,312.445L584.501,309.551C583.904,310.095 583.272,310.475 582.606,310.692C581.94,310.91 580.751,311.1 579.04,311.263C575.942,311.562 574.393,312.703 574.393,314.687C574.393,315.719 574.767,316.535 575.514,317.132C576.261,317.73 577.273,318.029 578.55,318.029C580.371,318.029 581.804,317.533 582.851,316.541C583.897,315.549 584.433,314.184 584.461,312.445ZM600.805,302.989L600.846,315.665C600.873,317.051 601.24,317.744 601.946,317.744C602.109,317.744 602.449,317.676 602.965,317.54C603.291,317.486 603.509,317.458 603.618,317.458C604.514,317.458 604.963,317.92 604.963,318.844C604.963,319.741 604.406,320.189 603.291,320.189C602.857,320.189 602.164,320.135 601.213,320.026C600.262,319.918 599.528,319.863 599.012,319.863C598.577,319.863 597.925,319.918 597.055,320.026C596.186,320.135 595.547,320.189 595.14,320.189L594.936,320.189C593.794,320.189 593.224,319.7 593.224,318.722C593.224,317.88 593.686,317.458 594.61,317.458L594.895,317.458C595.058,317.486 595.18,317.499 595.262,317.499C595.941,317.608 596.335,317.662 596.444,317.662C596.933,317.662 597.239,317.452 597.361,317.03C597.483,316.609 597.558,315.516 597.585,313.749L597.626,310.896L597.748,304.578L597.707,297.323C597.68,296.508 597.639,295.965 597.585,295.693C597.395,295.068 597.014,294.755 596.444,294.755C596.362,294.755 596.009,294.81 595.384,294.918C595.085,294.973 594.841,295 594.65,295C593.727,295 593.265,294.565 593.265,293.696C593.265,292.799 593.808,292.351 594.895,292.351C595.194,292.351 595.452,292.364 595.669,292.391L596.648,292.514C597.082,292.568 597.449,292.595 597.748,292.595C598.02,292.595 598.427,292.548 598.971,292.452C599.514,292.357 599.922,292.31 600.194,292.31C600.819,292.31 601.131,292.704 601.131,293.492C601.131,293.764 601.118,293.967 601.09,294.103C600.9,296.196 600.805,299.157 600.805,302.989ZM625.831,298.954C627.652,298.954 629.174,299.429 630.396,300.38L630.396,300.217C630.396,299.212 630.831,298.709 631.701,298.709C632.597,298.709 633.046,299.144 633.046,300.013C633.046,300.176 633.019,300.584 632.964,301.236C632.856,301.78 632.801,302.323 632.801,302.867C632.801,303.193 632.849,303.668 632.944,304.293C633.039,304.918 633.087,305.394 633.087,305.72C633.087,306.752 632.638,307.269 631.742,307.269C630.872,307.269 630.424,306.834 630.396,305.964L630.356,304.619C630.329,303.804 629.86,303.104 628.949,302.52C628.039,301.936 626.973,301.644 625.75,301.644C624.5,301.644 623.454,301.963 622.611,302.602C621.769,303.24 621.348,304.035 621.348,304.986C621.348,306.725 622.543,307.758 624.935,308.084L627.299,308.41C631.918,309.035 634.228,310.95 634.228,314.157C634.228,316.113 633.481,317.696 631.986,318.905C630.492,320.115 628.535,320.719 626.117,320.719C623.861,320.719 621.905,320.081 620.247,318.803C620.275,319.075 620.288,319.333 620.288,319.578C620.288,320.556 619.826,321.045 618.902,321.045C617.897,321.045 617.394,320.488 617.394,319.374C617.394,319.564 617.476,318.858 617.639,317.255C617.693,316.874 617.72,316.494 617.72,316.113C617.72,315.461 617.666,314.85 617.557,314.279C617.449,313.709 617.394,313.26 617.394,312.934C617.394,311.983 617.829,311.508 618.698,311.508C619.269,311.508 619.629,311.643 619.779,311.915C619.928,312.187 620.016,312.907 620.044,314.075C620.071,315.244 620.682,316.195 621.878,316.929C623.073,317.662 624.595,318.029 626.443,318.029C627.774,318.029 628.875,317.689 629.744,317.01C630.614,316.331 631.049,315.475 631.049,314.442C631.049,312.594 629.581,311.521 626.647,311.222C623.848,310.923 621.715,310.373 620.247,309.571C618.78,308.77 618.046,307.364 618.046,305.353C618.046,303.451 618.766,301.909 620.207,300.727C621.647,299.545 623.522,298.954 625.831,298.954ZM648.494,314.401L648.575,311.793C648.602,310.679 649.091,310.122 650.043,310.122C650.994,310.122 651.469,310.747 651.469,311.997C651.469,314.958 651.089,317.024 650.328,318.192C649.295,319.768 647.597,320.556 645.233,320.556C643.059,320.556 641.51,319.863 640.586,318.477C639.907,317.472 639.567,315.76 639.567,313.342L639.567,303.559C639.567,302.989 639.309,302.703 638.793,302.703L637.489,302.703C637.054,302.703 636.694,302.561 636.408,302.276C636.123,301.99 635.981,301.644 635.981,301.236C635.981,300.856 636.123,300.516 636.408,300.217C636.694,299.918 637.013,299.769 637.366,299.769L638.956,299.769C639.418,299.769 639.649,299.511 639.649,298.994L639.649,294.796C639.649,293.764 640.179,293.247 641.238,293.247C642.217,293.247 642.706,293.764 642.706,294.796L642.706,299.157C642.706,299.565 642.95,299.769 643.439,299.769L647.882,299.769C648.915,299.769 649.431,300.244 649.431,301.195C649.431,302.201 648.874,302.703 647.76,302.703L643.276,302.703C642.896,302.703 642.706,302.989 642.706,303.559L642.706,313.586C642.706,316.439 643.643,317.866 645.518,317.866C647.42,317.866 648.412,316.711 648.494,314.401ZM662.963,320.719C660.11,320.719 657.828,319.734 656.116,317.764C654.404,315.794 653.548,313.151 653.548,309.836C653.548,306.521 654.411,303.879 656.136,301.909C657.862,299.939 660.178,298.954 663.086,298.954C666.047,298.954 668.384,299.918 670.096,301.848C671.808,303.777 672.664,306.399 672.664,309.714C672.664,313.029 671.781,315.692 670.015,317.703C668.248,319.714 665.898,320.719 662.963,320.719ZM663.167,301.644C661.265,301.644 659.77,302.309 658.684,303.641C657.597,304.972 656.999,306.861 656.89,309.307L656.89,309.836C656.89,312.391 657.427,314.395 658.5,315.848C659.573,317.302 661.075,318.029 663.004,318.029C664.988,318.029 666.543,317.302 667.671,315.848C668.799,314.395 669.362,312.377 669.362,309.796C669.362,304.361 667.297,301.644 663.167,301.644ZM681.998,300.829L681.998,301.929C683.411,299.945 685.299,298.954 687.663,298.954C689.566,298.954 691.108,299.49 692.29,300.564C693.472,301.637 694.063,303.016 694.063,304.701C694.063,305.896 693.764,306.868 693.166,307.615C692.568,308.362 691.78,308.736 690.802,308.736C690.177,308.736 689.647,308.546 689.212,308.165C688.778,307.785 688.56,307.323 688.56,306.779C688.56,306.345 688.723,305.957 689.049,305.618C689.375,305.278 689.756,305.108 690.191,305.108C690.272,305.108 690.449,305.149 690.72,305.231C690.883,304.904 690.965,304.606 690.965,304.334C690.965,303.546 690.619,302.88 689.926,302.337C689.233,301.793 688.37,301.521 687.337,301.521C685.218,301.521 683.805,302.473 683.098,304.375C682.664,305.543 682.446,307.309 682.446,309.673L682.446,312.363C682.446,314.184 682.46,315.203 682.487,315.42C682.623,316.969 683.044,317.744 683.751,317.744C684.104,317.744 684.471,317.689 684.851,317.581C685.15,317.499 685.408,317.458 685.626,317.458C686.495,317.458 686.93,317.893 686.93,318.763C686.93,319.714 686.373,320.189 685.259,320.189L685.096,320.189C684.688,320.189 684.07,320.142 683.241,320.047C682.412,319.952 681.794,319.904 681.387,319.904C680.3,319.904 679.444,319.931 678.819,319.985L676.536,320.189C675.422,320.189 674.865,319.714 674.865,318.763C674.865,317.92 675.381,317.499 676.414,317.499C676.686,317.499 676.889,317.513 677.025,317.54L677.637,317.662C677.908,317.717 678.099,317.744 678.207,317.744C678.887,317.744 679.253,317.119 679.308,315.869L679.389,313.79L679.267,304.538C679.186,302.934 678.778,302.133 678.044,302.133C677.827,302.133 677.528,302.174 677.148,302.255C676.767,302.337 676.468,302.377 676.251,302.377C675.354,302.377 674.906,301.943 674.906,301.073C674.906,300.122 675.49,299.647 676.658,299.647C676.93,299.647 677.338,299.68 677.881,299.748C678.425,299.816 678.832,299.85 679.104,299.85C679.321,299.85 679.675,299.823 680.164,299.769C680.381,299.714 680.639,299.687 680.938,299.687C681.645,299.687 681.998,300.068 681.998,300.829ZM703.274,303.559L707.962,317.336L712.934,303.763C713.07,303.383 713.138,303.084 713.138,302.867C713.138,302.405 712.826,302.174 712.201,302.174C711.875,302.174 711.616,302.201 711.426,302.255C710.991,302.309 710.706,302.337 710.57,302.337C709.674,302.337 709.225,301.902 709.225,301.032C709.225,300.108 709.809,299.647 710.978,299.647C711.141,299.647 711.413,299.674 711.793,299.728L713.26,299.932C713.641,299.986 714.048,300.013 714.483,300.013C714.945,300.013 715.624,299.959 716.521,299.85C717.418,299.742 718.097,299.687 718.559,299.687C719.728,299.687 720.312,300.136 720.312,301.032C720.312,301.902 719.863,302.337 718.967,302.337C718.695,302.337 718.491,302.309 718.355,302.255C718.002,302.174 717.758,302.133 717.622,302.133C717.105,302.133 716.576,302.826 716.032,304.212L710.489,318.07C709.266,321.14 708.111,323.369 707.024,324.754C705.176,327.118 702.867,328.3 700.095,328.3C698.438,328.3 697.045,327.879 695.917,327.037C694.79,326.195 694.226,325.176 694.226,323.98C694.226,323.138 694.47,322.451 694.959,321.922C695.449,321.392 696.087,321.127 696.875,321.127C697.5,321.127 698.016,321.31 698.424,321.677C698.832,322.044 699.035,322.499 699.035,323.042C699.035,323.912 698.641,324.469 697.853,324.714C698.261,325.311 699.035,325.61 700.177,325.61C701.617,325.61 702.914,325.074 704.069,324C705.224,322.927 705.801,321.725 705.801,320.393C705.801,319.714 705.435,318.45 704.701,316.602L700.217,305.271C700.217,305.271 700.054,304.837 699.728,303.967C699.266,302.744 698.736,302.133 698.139,302.133C697.976,302.133 697.684,302.174 697.262,302.255C696.841,302.337 696.563,302.377 696.427,302.377C695.476,302.377 695,301.943 695,301.073C695,300.149 695.625,299.687 696.875,299.687C697.283,299.687 697.595,299.701 697.813,299.728L699.443,299.932L699.769,299.932C699.959,299.959 700.122,299.973 700.258,299.973C701.236,299.973 702.283,299.918 703.397,299.81C704.239,299.728 704.796,299.687 705.068,299.687C706.209,299.687 706.78,300.136 706.78,301.032C706.78,301.929 706.263,302.377 705.231,302.377C705.068,302.377 704.81,302.343 704.456,302.276C704.103,302.208 703.845,302.174 703.682,302.174C703.302,302.174 703.111,302.364 703.111,302.744C703.111,302.962 703.166,303.233 703.274,303.559ZM732.58,314.401L732.662,311.793C732.689,310.679 733.178,310.122 734.129,310.122C735.08,310.122 735.556,310.747 735.556,311.997C735.556,314.958 735.175,317.024 734.415,318.192C733.382,319.768 731.684,320.556 729.32,320.556C727.146,320.556 725.597,319.863 724.673,318.477C723.994,317.472 723.654,315.76 723.654,313.342L723.654,303.559C723.654,302.989 723.396,302.703 722.88,302.703L721.575,302.703C721.141,302.703 720.781,302.561 720.495,302.276C720.21,301.99 720.067,301.644 720.067,301.236C720.067,300.856 720.21,300.516 720.495,300.217C720.781,299.918 721.1,299.769 721.453,299.769L723.043,299.769C723.505,299.769 723.736,299.511 723.736,298.994L723.736,294.796C723.736,293.764 724.265,293.247 725.325,293.247C726.303,293.247 726.793,293.764 726.793,294.796L726.793,299.157C726.793,299.565 727.037,299.769 727.526,299.769L731.969,299.769C733.002,299.769 733.518,300.244 733.518,301.195C733.518,302.201 732.961,302.703 731.847,302.703L727.363,302.703C726.983,302.703 726.793,302.989 726.793,303.559L726.793,313.586C726.793,316.439 727.73,317.866 729.605,317.866C731.507,317.866 732.499,316.711 732.58,314.401ZM756.18,308.043C756.18,309.076 756.112,309.707 755.976,309.938C755.84,310.169 755.446,310.285 754.794,310.285L741.833,310.285C741.48,310.285 741.249,310.332 741.14,310.427C741.031,310.522 740.977,310.679 740.977,310.896C740.977,312.934 741.588,314.632 742.811,315.991C744.034,317.35 745.555,318.029 747.376,318.029C748.572,318.029 749.665,317.703 750.657,317.051C751.649,316.399 752.294,315.57 752.593,314.564L752.96,313.382C753.15,312.73 753.599,312.404 754.305,312.404C755.311,312.404 755.813,312.921 755.813,313.953C755.813,315.719 754.917,317.289 753.123,318.661C751.33,320.033 749.292,320.719 747.009,320.719C744.156,320.719 741.887,319.761 740.202,317.846C738.518,315.93 737.675,313.355 737.675,310.122C737.675,306.807 738.572,304.116 740.365,302.051C742.159,299.986 744.496,298.954 747.376,298.954C749.93,298.954 752.036,299.81 753.694,301.521C755.351,303.233 756.18,305.407 756.18,308.043ZM741.384,306.983C741.384,307.364 741.683,307.554 742.281,307.554L752.023,307.554C752.593,307.554 752.879,307.364 752.879,306.983C752.879,305.543 752.335,304.293 751.248,303.233C750.161,302.174 748.884,301.644 747.417,301.644C745.895,301.644 744.509,302.194 743.259,303.294C742.009,304.395 741.384,305.625 741.384,306.983ZM765.555,302.989L765.596,315.665C765.623,317.051 765.99,317.744 766.696,317.744C766.859,317.744 767.199,317.676 767.715,317.54C768.041,317.486 768.258,317.458 768.367,317.458C769.264,317.458 769.712,317.92 769.712,318.844C769.712,319.741 769.155,320.189 768.041,320.189C767.606,320.189 766.913,320.135 765.962,320.026C765.011,319.918 764.278,319.863 763.761,319.863C763.327,319.863 762.674,319.918 761.805,320.026C760.935,320.135 760.297,320.189 759.889,320.189L759.685,320.189C758.544,320.189 757.974,319.7 757.974,318.722C757.974,317.88 758.435,317.458 759.359,317.458L759.645,317.458C759.808,317.486 759.93,317.499 760.011,317.499C760.691,317.608 761.085,317.662 761.194,317.662C761.683,317.662 761.988,317.452 762.111,317.03C762.233,316.609 762.308,315.516 762.335,313.749L762.376,310.896L762.498,304.578L762.457,297.323C762.43,296.508 762.389,295.965 762.335,295.693C762.145,295.068 761.764,294.755 761.194,294.755C761.112,294.755 760.759,294.81 760.134,294.918C759.835,294.973 759.59,295 759.4,295C758.476,295 758.014,294.565 758.014,293.696C758.014,292.799 758.558,292.351 759.645,292.351C759.944,292.351 760.202,292.364 760.419,292.391L761.397,292.514C761.832,292.568 762.199,292.595 762.498,292.595C762.77,292.595 763.177,292.548 763.721,292.452C764.264,292.357 764.672,292.31 764.943,292.31C765.568,292.31 765.881,292.704 765.881,293.492C765.881,293.764 765.867,293.967 765.84,294.103C765.65,296.196 765.555,299.157 765.555,302.989ZM778.149,302.989L778.19,315.665C778.217,317.051 778.584,317.744 779.291,317.744C779.454,317.744 779.793,317.676 780.31,317.54C780.636,317.486 780.853,317.458 780.962,317.458C781.859,317.458 782.307,317.92 782.307,318.844C782.307,319.741 781.75,320.189 780.636,320.189C780.201,320.189 779.508,320.135 778.557,320.026C777.606,319.918 776.872,319.863 776.356,319.863C775.921,319.863 775.269,319.918 774.4,320.026C773.53,320.135 772.891,320.189 772.484,320.189L772.28,320.189C771.139,320.189 770.568,319.7 770.568,318.722C770.568,317.88 771.03,317.458 771.954,317.458L772.239,317.458C772.402,317.486 772.525,317.499 772.606,317.499C773.285,317.608 773.679,317.662 773.788,317.662C774.277,317.662 774.583,317.452 774.705,317.03C774.828,316.609 774.902,315.516 774.929,313.749L774.97,310.896L775.092,304.578L775.052,297.323C775.025,296.508 774.984,295.965 774.929,295.693C774.739,295.068 774.359,294.755 773.788,294.755C773.707,294.755 773.353,294.81 772.728,294.918C772.43,294.973 772.185,295 771.995,295C771.071,295 770.609,294.565 770.609,293.696C770.609,292.799 771.152,292.351 772.239,292.351C772.538,292.351 772.796,292.364 773.014,292.391L773.992,292.514C774.427,292.568 774.794,292.595 775.092,292.595C775.364,292.595 775.772,292.548 776.315,292.452C776.859,292.357 777.266,292.31 777.538,292.31C778.163,292.31 778.476,292.704 778.476,293.492C778.476,293.764 778.462,293.967 778.435,294.103C778.245,296.196 778.149,299.157 778.149,302.989ZM802.89,308.043C802.89,309.076 802.823,309.707 802.687,309.938C802.551,310.169 802.157,310.285 801.505,310.285L788.543,310.285C788.19,310.285 787.959,310.332 787.85,310.427C787.742,310.522 787.687,310.679 787.687,310.896C787.687,312.934 788.299,314.632 789.521,315.991C790.744,317.35 792.266,318.029 794.086,318.029C795.282,318.029 796.376,317.703 797.368,317.051C798.359,316.399 799.005,315.57 799.304,314.564L799.67,313.382C799.861,312.73 800.309,312.404 801.016,312.404C802.021,312.404 802.524,312.921 802.524,313.953C802.524,315.719 801.627,317.289 799.833,318.661C798.04,320.033 796.002,320.719 793.72,320.719C790.866,320.719 788.597,319.761 786.913,317.846C785.228,315.93 784.386,313.355 784.386,310.122C784.386,306.807 785.282,304.116 787.076,302.051C788.869,299.986 791.206,298.954 794.086,298.954C796.641,298.954 798.747,299.81 800.404,301.521C802.062,303.233 802.89,305.407 802.89,308.043ZM788.095,306.983C788.095,307.364 788.394,307.554 788.991,307.554L798.733,307.554C799.304,307.554 799.589,307.364 799.589,306.983C799.589,305.543 799.045,304.293 797.959,303.233C796.872,302.174 795.594,301.644 794.127,301.644C792.605,301.644 791.22,302.194 789.97,303.294C788.72,304.395 788.095,305.625 788.095,306.983ZM812.061,300.829L812.061,301.929C813.474,299.945 815.363,298.954 817.727,298.954C819.629,298.954 821.171,299.49 822.353,300.564C823.535,301.637 824.126,303.016 824.126,304.701C824.126,305.896 823.827,306.868 823.229,307.615C822.632,308.362 821.844,308.736 820.865,308.736C820.24,308.736 819.71,308.546 819.276,308.165C818.841,307.785 818.624,307.323 818.624,306.779C818.624,306.345 818.787,305.957 819.113,305.618C819.439,305.278 819.819,305.108 820.254,305.108C820.335,305.108 820.512,305.149 820.784,305.231C820.947,304.904 821.028,304.606 821.028,304.334C821.028,303.546 820.682,302.88 819.989,302.337C819.296,301.793 818.433,301.521 817.401,301.521C815.281,301.521 813.868,302.473 813.162,304.375C812.727,305.543 812.51,307.309 812.51,309.673L812.51,312.363C812.51,314.184 812.523,315.203 812.55,315.42C812.686,316.969 813.107,317.744 813.814,317.744C814.167,317.744 814.534,317.689 814.914,317.581C815.213,317.499 815.472,317.458 815.689,317.458C816.558,317.458 816.993,317.893 816.993,318.763C816.993,319.714 816.436,320.189 815.322,320.189L815.159,320.189C814.751,320.189 814.133,320.142 813.304,320.047C812.476,319.952 811.858,319.904 811.45,319.904C810.363,319.904 809.507,319.931 808.882,319.985L806.6,320.189C805.485,320.189 804.928,319.714 804.928,318.763C804.928,317.92 805.445,317.499 806.477,317.499C806.749,317.499 806.953,317.513 807.089,317.54L807.7,317.662C807.972,317.717 808.162,317.744 808.271,317.744C808.95,317.744 809.317,317.119 809.371,315.869L809.453,313.79L809.33,304.538C809.249,302.934 808.841,302.133 808.108,302.133C807.89,302.133 807.591,302.174 807.211,302.255C806.831,302.337 806.532,302.377 806.314,302.377C805.418,302.377 804.969,301.943 804.969,301.073C804.969,300.122 805.553,299.647 806.722,299.647C806.994,299.647 807.401,299.68 807.945,299.748C808.488,299.816 808.896,299.85 809.167,299.85C809.385,299.85 809.738,299.823 810.227,299.769C810.445,299.714 810.703,299.687 811.002,299.687C811.708,299.687 812.061,300.068 812.061,300.829ZM826.123,320.719C825.417,320.719 824.819,320.468 824.33,319.965C823.841,319.462 823.596,318.858 823.596,318.151C823.596,317.445 823.841,316.84 824.33,316.338C824.819,315.835 825.417,315.583 826.123,315.583C826.83,315.583 827.428,315.835 827.917,316.338C828.406,316.84 828.65,317.445 828.65,318.151C828.65,318.858 828.406,319.462 827.917,319.965C827.428,320.468 826.83,320.719 826.123,320.719Z" style="fill:rgb(171,63,33);fill-rule:nonzero;"/>
            </g>
        </g>
    </g>
</svg>
